# xmcd CD database file
#
# Track frame offsets:
#	180
#	14638
#	30513
#	45803
#	61313
#	78624
#	108343
#	122945
#	138697
#	154322
#	166150
#	176448
#
# Disc length: 2592 seconds
#
# Revision: 0
# Processed by: cddbd v1.5.2PL0 Copyright (c) Steve Scherf et al.
# Submitted via: CDex 1.70beta2
#
DISCID=990a1e0c
DTITLE=Gary Prescott - Rough Country, Wild Cattle
DYEAR=1998
DGENRE=Country
TTITLE0=Smokey Joe
TTITLE1=Rough Country, Wild Cattle
TTITLE2=Rivers Run Wild
TTITLE3=Help Me Find The Way
TTITLE4=Big Blue Texas Skies
TTITLE5=Shootin' The Gap
TTITLE6=Ride Fritz, Ride
TTITLE7=Rio Grande Sand
TTITLE8=Cowboy Blues
TTITLE9=Wings Of An Eagle
TTITLE10=Cowboy Saturday Night
TTITLE11=Buckaroo Memories
EXTD=YEAR: 1998
EXTT0=
EXTT1=
EXTT2=
EXTT3=
EXTT4=
EXTT5=
EXTT6=
EXTT7=
EXTT8=
EXTT9=
EXTT10=
EXTT11=
PLAYORDER=
